<svg width="33" height="32" viewBox="0 0 33 32" fill="none" xmlns="http://www.w3.org/2000/svg">
<rect x="0.5" width="32" height="32" rx="9.6" fill="#1C1C1C"/>
<path d="M20.1948 16.8256L14.1948 22.8256C14.139 22.8814 14.0728 22.9256 14 22.9558C13.9272 22.9859 13.8491 23.0015 13.7703 23.0015C13.6914 23.0015 13.6134 22.9859 13.5405 22.9558C13.4677 22.9256 13.4015 22.8814 13.3458 22.8256C13.29 22.7699 13.2458 22.7037 13.2156 22.6309C13.1854 22.558 13.1699 22.48 13.1699 22.4011C13.1699 22.3223 13.1854 22.2442 13.2156 22.1714C13.2458 22.0985 13.29 22.0324 13.3458 21.9766L18.922 16.4011L13.3458 10.8256C13.2332 10.713 13.1699 10.5603 13.1699 10.4011C13.1699 10.2419 13.2332 10.0892 13.3458 9.97661C13.4583 9.86403 13.611 9.80078 13.7703 9.80078C13.9295 9.80078 14.0822 9.86403 14.1948 9.97661L20.1948 15.9766C20.2505 16.0323 20.2948 16.0985 20.325 16.1714C20.3552 16.2442 20.3707 16.3223 20.3707 16.4011C20.3707 16.48 20.3552 16.558 20.325 16.6309C20.2948 16.7037 20.2505 16.7699 20.1948 16.8256Z" fill="white"/>
</svg>
