<svg width="25" height="24" viewBox="0 0 25 24" fill="none" xmlns="http://www.w3.org/2000/svg">
<path d="M12.1465 2.25C10.2181 2.25 8.33306 2.82183 6.72968 3.89317C5.1263 4.96451 3.87662 6.48726 3.13866 8.26884C2.40071 10.0504 2.20763 12.0108 2.58383 13.9021C2.96004 15.7934 3.88864 17.5307 5.2522 18.8943C6.61576 20.2579 8.35304 21.1865 10.2444 21.5627C12.1357 21.9389 14.0961 21.7458 15.8777 21.0078C17.6592 20.2699 19.182 19.0202 20.2533 17.4168C21.3247 15.8134 21.8965 13.9284 21.8965 12C21.8938 9.41498 20.8657 6.93661 19.0378 5.10872C17.2099 3.28084 14.7315 2.25273 12.1465 2.25ZM16.4271 10.2806L11.1771 15.5306C11.1075 15.6004 11.0247 15.6557 10.9337 15.6934C10.8426 15.7312 10.7451 15.7506 10.6465 15.7506C10.5479 15.7506 10.4503 15.7312 10.3593 15.6934C10.2682 15.6557 10.1855 15.6004 10.1159 15.5306L7.86586 13.2806C7.72513 13.1399 7.64607 12.949 7.64607 12.75C7.64607 12.551 7.72513 12.3601 7.86586 12.2194C8.00659 12.0786 8.19747 11.9996 8.39649 11.9996C8.59551 11.9996 8.78638 12.0786 8.92711 12.2194L10.6465 13.9397L15.3659 9.21937C15.4355 9.14969 15.5183 9.09442 15.6093 9.0567C15.7004 9.01899 15.7979 8.99958 15.8965 8.99958C15.995 8.99958 16.0926 9.01899 16.1837 9.0567C16.2747 9.09442 16.3574 9.14969 16.4271 9.21937C16.4968 9.28906 16.5521 9.37178 16.5898 9.46283C16.6275 9.55387 16.6469 9.65145 16.6469 9.75C16.6469 9.84855 16.6275 9.94613 16.5898 10.0372C16.5521 10.1282 16.4968 10.2109 16.4271 10.2806Z" fill="#22C55E"/>
</svg>
