<svg width="120" height="120" viewBox="0 0 120 120" fill="none" xmlns="http://www.w3.org/2000/svg">
<path fillRule="evenodd" clipRule="evenodd" d="M97.5 66.7817H22.5V101.492C22.4998 102.298 22.7597 103.083 23.241 103.73C23.7223 104.378 24.3994 104.852 25.1719 105.084L58.9219 115.209C59.6253 115.419 60.3747 115.419 61.0781 115.209L94.8281 105.084C95.6006 104.852 96.2777 104.378 96.759 103.73C97.2403 103.083 97.5002 102.298 97.5 101.492V66.7817Z" fill="#CADCF0"/>
<path fillRule="evenodd" clipRule="evenodd" d="M97.5015 66.7822H60.0015C60.0015 66.7822 59.6378 115.367 60.0015 115.367C60.3653 115.367 60.7271 115.315 61.0796 115.21L94.8296 105.085C95.6021 104.853 96.2792 104.378 96.7605 103.731C97.2418 103.084 97.5017 102.299 97.5015 101.492V66.7822Z" fill="#A4BBDB"/>
<path fillRule="evenodd" clipRule="evenodd" d="M60.001 78.9491L22.501 66.7822L12.9854 80.8897C12.8227 81.1305 12.7183 81.4057 12.6802 81.6938C12.6422 81.9818 12.6716 82.2748 12.7661 82.5495C12.8607 82.8243 13.0178 83.0733 13.225 83.2769C13.4323 83.4805 13.684 83.6332 13.9604 83.7229L47.701 94.6841C48.0876 94.8098 48.5046 94.8064 48.8891 94.6745C49.2736 94.5426 49.6049 94.2894 49.8329 93.9529L60.001 78.9491ZM97.501 66.7822L60.001 78.9491L70.1692 93.9529C70.3972 94.2894 70.7284 94.5426 71.113 94.6745C71.4975 94.8064 71.9144 94.8098 72.301 94.6841L106.042 83.7229C106.318 83.6332 106.57 83.4805 106.777 83.2769C106.984 83.0733 107.141 82.8243 107.236 82.5495C107.331 82.2748 107.36 81.9818 107.322 81.6938C107.284 81.4057 107.179 81.1305 107.017 80.8897L97.501 66.7822Z" fill="#E9F3FC"/>
<path fillRule="evenodd" clipRule="evenodd" d="M50.9239 41.2238C50.6954 40.8884 50.3642 40.6361 49.9802 40.5049C49.5961 40.3738 49.1798 40.3707 48.7939 40.4963L15.0514 51.4595C14.7748 51.5486 14.5228 51.7008 14.3153 51.9042C14.1078 52.1076 13.9505 52.3566 13.8559 52.6313C13.7613 52.906 13.7319 53.199 13.7702 53.487C13.8085 53.7751 13.9133 54.0502 14.0764 54.2907L22.5007 66.782L60.0007 54.5738L50.9239 41.2238Z" fill="#CADCF0"/>
<path fillRule="evenodd" clipRule="evenodd" d="M105.924 54.2907C106.087 54.05 106.191 53.7749 106.229 53.4871C106.267 53.1993 106.237 52.9066 106.142 52.6321C106.048 52.3576 105.891 52.1088 105.684 51.9053C105.477 51.7019 105.225 51.5492 104.949 51.4595L71.2069 40.4963C70.8209 40.3707 70.4047 40.3738 70.0206 40.5049C69.6365 40.6361 69.3053 40.8884 69.0769 41.2238L60 54.5738L97.5 66.782L105.924 54.2907Z" fill="#E9F3FC"/>
<path fillRule="evenodd" clipRule="evenodd" d="M97.5 66.7819L60 54.5737L22.5 66.7819L60 78.9487L97.5 66.7819Z" fill="#CADCF0"/>
<path fillRule="evenodd" clipRule="evenodd" d="M60 78.9487V54.5737L22.5 66.7819L60 78.9487Z" fill="#A4BBDB"/>
<path fillRule="evenodd" clipRule="evenodd" d="M52.4671 59.9587C51.7217 59.4741 51.0169 58.9298 50.3596 58.3312C49.9912 58.0091 49.5114 57.8439 49.0227 57.8708C48.5341 57.8977 48.0753 58.1145 47.7444 58.4751C47.4135 58.8356 47.2366 59.3112 47.2516 59.8004C47.2666 60.2895 47.4723 60.7535 47.8247 61.093C48.5915 61.798 49.4559 62.4693 50.4159 63.0974C50.8321 63.3606 51.3351 63.4496 51.8163 63.345C52.2975 63.2404 52.7183 62.9507 52.9877 62.5385C53.2571 62.1263 53.3535 61.6246 53.2561 61.1419C53.1587 60.6592 52.8753 60.2342 52.4671 59.9587ZM46.6246 54.1987C46.0918 53.4806 45.6189 52.7199 45.2109 51.9243C44.9854 51.481 44.593 51.1454 44.12 50.9914C43.6471 50.8374 43.1324 50.8775 42.689 51.103C42.2457 51.3286 41.9101 51.721 41.7561 52.1939C41.6021 52.6668 41.6423 53.1816 41.8678 53.6249C42.344 54.5587 42.9215 55.4943 43.6059 56.4224C43.9045 56.8128 44.3443 57.0703 44.8308 57.1396C45.3173 57.2088 45.8116 57.0844 46.2073 56.7929C46.6029 56.5015 46.8683 56.0663 46.9464 55.5811C47.0245 55.096 46.9089 54.5995 46.6246 54.1987ZM43.8834 46.5468C43.9021 45.7912 44.0128 45.058 44.2153 44.3549C44.3523 43.8768 44.2937 43.3638 44.0525 42.9288C43.8113 42.4939 43.4072 42.1726 42.929 42.0356C42.4509 41.8986 41.9379 41.9571 41.5029 42.1983C41.068 42.4395 40.7467 42.8437 40.6097 43.3218C40.3196 44.3413 40.1596 45.3934 40.1334 46.453C40.121 46.9503 40.3066 47.4322 40.6494 47.7926C40.9923 48.153 41.4642 48.3625 41.9615 48.3749C42.4588 48.3874 42.9407 48.2017 43.3011 47.8589C43.6615 47.5161 43.871 47.0441 43.8834 46.5468ZM46.7671 40.2843C47.249 39.8381 47.789 39.4255 48.3797 39.0524C48.8003 38.7871 49.0984 38.3656 49.2083 37.8805C49.3182 37.3954 49.2309 36.8866 48.9656 36.4659C48.7003 36.0452 48.2787 35.7471 47.7937 35.6372C47.3086 35.5273 46.7997 35.6146 46.379 35.8799C45.6095 36.3634 44.8865 36.917 44.219 37.5337C43.8635 37.8738 43.6559 38.3401 43.641 38.832C43.6262 39.3238 43.8053 39.8018 44.1397 40.1628C44.4741 40.5237 44.937 40.7388 45.4285 40.7615C45.9201 40.7843 46.4008 40.6129 46.7671 40.2843ZM53.7403 37.0499C54.73 36.8692 55.7312 36.7589 56.7365 36.7199C57.2216 36.6825 57.6733 36.4581 57.9961 36.0941C58.319 35.7301 58.4879 35.255 58.4673 34.7689C58.4466 34.2828 58.238 33.8237 57.8853 33.4884C57.5327 33.1532 57.0637 32.9679 56.5771 32.9718C55.3396 33.0243 54.1659 33.1574 53.0578 33.3618C52.5687 33.4523 52.1356 33.7334 51.8538 34.1432C51.5719 34.553 51.4645 35.058 51.555 35.5471C51.6455 36.0362 51.9266 36.4693 52.3364 36.7511C52.7462 37.0329 53.2512 37.1404 53.7403 37.0499ZM63.5128 36.9393C65.1122 36.9581 66.6009 36.9018 67.9828 36.7799C68.4735 36.7302 68.925 36.4891 69.2392 36.1089C69.5534 35.7286 69.7051 35.2399 69.6615 34.7485C69.6178 34.2572 69.3823 33.8028 69.0059 33.4839C68.6296 33.1651 68.1427 33.0073 67.6509 33.0449C66.3853 33.1556 65.0221 33.2081 63.5559 33.1893C63.0586 33.1836 62.5794 33.3756 62.2238 33.7232C61.8681 34.0708 61.6651 34.5455 61.6593 35.0427C61.6536 35.54 61.8457 36.0192 62.1933 36.3749C62.5409 36.7306 63.0155 36.9336 63.5128 36.9393ZM74.1459 35.6306C76.0021 35.0624 77.5696 34.3349 78.8821 33.5006C79.0898 33.3682 79.2694 33.1962 79.4107 32.9945C79.5519 32.7927 79.652 32.5651 79.7053 32.3247C79.7586 32.0842 79.764 31.8357 79.7212 31.5931C79.6784 31.3506 79.5882 31.1189 79.4559 30.9112C79.3235 30.7035 79.1516 30.5239 78.9498 30.3827C78.7481 30.2414 78.5205 30.1413 78.28 30.088C78.0396 30.0347 77.791 30.0293 77.5485 30.0721C77.3059 30.1149 77.0742 30.2051 76.8665 30.3374C75.6765 31.0753 74.3925 31.6492 73.049 32.0437C72.5734 32.1891 72.175 32.5176 71.9415 32.9568C71.708 33.396 71.6586 33.9099 71.804 34.3856C71.9495 34.8612 72.2779 35.2596 72.7171 35.4931C73.1563 35.7266 73.6702 35.776 74.1459 35.6306ZM83.6896 28.2524C84.5333 26.5001 84.9246 24.5643 84.8278 22.6218C84.8163 22.3758 84.7565 22.1345 84.6518 21.9116C84.5471 21.6887 84.3995 21.4887 84.2175 21.3228C84.0355 21.157 83.8226 21.0286 83.5909 20.9451C83.3593 20.8615 83.1134 20.8244 82.8675 20.8359C82.6215 20.8473 82.3802 20.9071 82.1573 21.0118C81.9344 21.1165 81.7343 21.2641 81.5685 21.4461C81.4027 21.6282 81.2743 21.8411 81.1907 22.0727C81.1072 22.3044 81.0701 22.5502 81.0815 22.7962C81.149 24.1154 80.8847 25.4305 80.3128 26.6212C80.1214 27.0654 80.109 27.5664 80.278 28.0196C80.4471 28.4728 80.7846 28.8433 81.2201 29.0537C81.6557 29.2641 82.1557 29.2982 82.6158 29.1489C83.0759 28.9996 83.4606 28.6785 83.6896 28.2524ZM82.4953 15.9918C81.1284 14.1449 79.274 12.8587 77.2528 12.4443C76.7731 12.3631 76.2806 12.4714 75.8791 12.7462C75.4777 13.0211 75.1987 13.4411 75.1009 13.9177C75.0032 14.3944 75.0943 14.8903 75.3551 15.301C75.616 15.7117 76.0261 16.0051 76.499 16.1193C77.6653 16.3574 78.6928 17.1581 79.4821 18.2249C79.6288 18.4228 79.8129 18.5898 80.0241 18.7165C80.2353 18.8431 80.4694 18.927 80.7129 18.9632C80.9565 18.9994 81.2048 18.9873 81.4437 18.9275C81.6826 18.8678 81.9074 18.7616 82.1053 18.6149C82.3031 18.4683 82.4701 18.2841 82.5968 18.073C82.7235 17.8618 82.8073 17.6277 82.8435 17.3841C82.8798 17.1406 82.8676 16.8922 82.8079 16.6533C82.7481 16.4144 82.6419 16.1896 82.4953 15.9918Z" fill="#347BFA"/>
<path fillRule="evenodd" clipRule="evenodd" d="M58 12.8078C60.0287 1.31963 77.6106 2.06213 67.375 12.8078H58ZM58 15.7178C60.0287 27.204 77.6106 26.4634 67.375 15.7178H58Z" fill="#CADCF0"/>
<path fillRule="evenodd" clipRule="evenodd" d="M57.8301 16.1567H70.3851C70.8824 16.1567 71.3593 15.9592 71.7109 15.6076C72.0626 15.2559 72.2601 14.779 72.2601 14.2817C72.2601 13.7845 72.0626 13.3075 71.7109 12.9559C71.3593 12.6043 70.8824 12.4067 70.3851 12.4067H57.8301C57.3473 12.4283 56.8915 12.6353 56.5575 12.9846C56.2235 13.3338 56.0371 13.7985 56.0371 14.2817C56.0371 14.765 56.2235 15.2296 56.5575 15.5789C56.8915 15.9282 57.3473 16.1351 57.8301 16.1567Z" fill="#347BFA"/>
</svg>
