<svg width="24" height="25" viewBox="0 0 24 25" fill="none" xmlns="http://www.w3.org/2000/svg">
<path d="M5.05499 3.47408C4.98913 3.39984 4.90918 3.3394 4.81979 3.29628C4.7304 3.25317 4.63334 3.22822 4.53423 3.22288C4.43513 3.21755 4.33595 3.23194 4.24245 3.26522C4.14895 3.29851 4.06298 3.35001 3.98953 3.41676C3.91608 3.48351 3.85661 3.56417 3.81457 3.65408C3.77252 3.74398 3.74874 3.84133 3.7446 3.94049C3.74045 4.03966 3.75603 4.13865 3.79043 4.23175C3.82483 4.32485 3.87737 4.41019 3.94499 4.48283L5.74874 6.46752C2.34374 8.55721 0.879366 11.7785 0.814679 11.9247C0.772035 12.0206 0.75 12.1244 0.75 12.2294C0.75 12.3344 0.772035 12.4382 0.814679 12.5341C0.847491 12.6081 1.64155 14.3688 3.40687 16.1341C5.75905 18.4853 8.72999 19.7285 12 19.7285C13.6806 19.738 15.3442 19.392 16.8816 18.7131L18.9441 20.9828C19.0099 21.0571 19.0899 21.1175 19.1793 21.1606C19.2686 21.2037 19.3657 21.2287 19.4648 21.234C19.5639 21.2394 19.6631 21.225 19.7566 21.1917C19.8501 21.1584 19.9361 21.1069 20.0095 21.0402C20.083 20.9734 20.1424 20.8927 20.1845 20.8028C20.2265 20.7129 20.2503 20.6156 20.2544 20.5164C20.2586 20.4173 20.243 20.3183 20.2086 20.2252C20.1742 20.1321 20.1217 20.0467 20.0541 19.9741L5.05499 3.47408ZM9.49218 10.5841L13.3987 14.8825C12.8105 15.192 12.136 15.2973 11.4814 15.182C10.8268 15.0666 10.229 14.7371 9.78189 14.2452C9.33481 13.7533 9.06377 13.1268 9.01134 12.4642C8.9589 11.8015 9.12803 11.1402 9.49218 10.5841ZM12 18.2285C9.11437 18.2285 6.59343 17.1794 4.50655 15.1113C3.64997 14.26 2.92145 13.2889 2.34374 12.2285C2.78343 11.4044 4.18687 9.09814 6.7828 7.59908L8.4703 9.45064C7.81699 10.2874 7.48052 11.3281 7.52036 12.3889C7.56021 13.4497 7.97379 14.4623 8.68802 15.2477C9.40225 16.033 10.3711 16.5406 11.4234 16.6807C12.4757 16.8208 13.5436 16.5843 14.4384 16.0131L15.8194 17.5319C14.6006 17.9995 13.3053 18.2357 12 18.2285ZM12.5625 9.28189C12.3671 9.2446 12.1944 9.13119 12.0826 8.96663C11.9708 8.80207 11.9289 8.59983 11.9662 8.40439C12.0035 8.20896 12.1169 8.03635 12.2815 7.92453C12.4461 7.81271 12.6483 7.77085 12.8437 7.80814C13.7996 7.99346 14.67 8.48282 15.325 9.20323C15.98 9.92364 16.3846 10.8365 16.4784 11.8056C16.4969 12.0037 16.436 12.201 16.3091 12.3541C16.1822 12.5072 15.9996 12.6037 15.8016 12.6222C15.7781 12.6236 15.7547 12.6236 15.7312 12.6222C15.5438 12.623 15.3628 12.5536 15.224 12.4276C15.0852 12.3016 14.9986 12.1282 14.9812 11.9416C14.9181 11.297 14.6486 10.6899 14.2128 10.2107C13.7771 9.73152 13.1982 9.40577 12.5625 9.28189ZM23.1825 12.5341C23.1431 12.6222 22.1934 14.725 20.055 16.6403C19.9819 16.7079 19.8961 16.7602 19.8027 16.7942C19.7092 16.8283 19.6099 16.8434 19.5105 16.8387C19.4111 16.834 19.3136 16.8096 19.2238 16.7668C19.1339 16.7241 19.0535 16.6639 18.9871 16.5898C18.9208 16.5156 18.8698 16.429 18.8373 16.335C18.8047 16.241 18.7912 16.1414 18.7975 16.0421C18.8037 15.9429 18.8297 15.8458 18.8739 15.7566C18.918 15.6675 18.9795 15.588 19.0547 15.5228C20.1038 14.5803 20.9851 13.4663 21.6609 12.2285C21.0819 11.167 20.3518 10.1953 19.4934 9.34377C17.4066 7.27752 14.8856 6.22846 12 6.22846C11.392 6.22771 10.7849 6.27694 10.185 6.37564C10.0874 6.3929 9.98741 6.39065 9.89073 6.36903C9.79404 6.34741 9.70259 6.30685 9.62167 6.24968C9.54074 6.19252 9.47195 6.11989 9.41925 6.03599C9.36656 5.95209 9.33101 5.85858 9.31466 5.76086C9.29832 5.66314 9.30149 5.56315 9.32401 5.46667C9.34652 5.37018 9.38793 5.27912 9.44584 5.19873C9.50375 5.11834 9.57702 5.05022 9.6614 4.9983C9.74579 4.94639 9.83963 4.91171 9.93749 4.89627C10.6192 4.78371 11.309 4.72758 12 4.72846C15.27 4.72846 18.2409 5.97158 20.5931 8.32377C22.3584 10.0891 23.1525 11.8506 23.1853 11.9247C23.2279 12.0206 23.25 12.1244 23.25 12.2294C23.25 12.3344 23.2279 12.4382 23.1853 12.5341H23.1825Z" fill="#6B7280"/>
</svg>
