<svg width="24" height="25" viewBox="0 0 24 25" fill="none" xmlns="http://www.w3.org/2000/svg">
<path d="M23.1853 11.9248C23.1525 11.8507 22.3584 10.0891 20.5931 8.32383C18.2409 5.97164 15.27 4.72852 12 4.72852C8.72999 4.72852 5.75905 5.97164 3.40687 8.32383C1.64155 10.0891 0.843741 11.8535 0.814679 11.9248C0.772035 12.0207 0.75 12.1245 0.75 12.2295C0.75 12.3344 0.772035 12.4382 0.814679 12.5341C0.847491 12.6082 1.64155 14.3688 3.40687 16.1341C5.75905 18.4854 8.72999 19.7285 12 19.7285C15.27 19.7285 18.2409 18.4854 20.5931 16.1341C22.3584 14.3688 23.1525 12.6082 23.1853 12.5341C23.2279 12.4382 23.25 12.3344 23.25 12.2295C23.25 12.1245 23.2279 12.0207 23.1853 11.9248ZM12 18.2285C9.11437 18.2285 6.59343 17.1795 4.50655 15.1113C3.65028 14.2598 2.92179 13.2888 2.34374 12.2285C2.92164 11.1681 3.65014 10.1971 4.50655 9.3457C6.59343 7.27758 9.11437 6.22852 12 6.22852C14.8856 6.22852 17.4066 7.27758 19.4934 9.3457C20.3514 10.1969 21.0815 11.1679 21.6609 12.2285C20.985 13.4904 18.0403 18.2285 12 18.2285ZM12 7.72852C11.11 7.72852 10.2399 7.99244 9.49993 8.4869C8.7599 8.98137 8.18313 9.68417 7.84253 10.5064C7.50194 11.3287 7.41282 12.2335 7.58646 13.1064C7.76009 13.9793 8.18867 14.7812 8.81801 15.4105C9.44735 16.0398 10.2492 16.4684 11.1221 16.642C11.995 16.8157 12.8998 16.7266 13.7221 16.386C14.5443 16.0454 15.2471 15.4686 15.7416 14.7286C16.2361 13.9886 16.5 13.1185 16.5 12.2285C16.4988 11.0354 16.0242 9.89155 15.1806 9.04791C14.337 8.20426 13.1931 7.72976 12 7.72852ZM12 15.2285C11.4066 15.2285 10.8266 15.0526 10.3333 14.7229C9.83993 14.3933 9.45542 13.9247 9.22835 13.3766C9.00129 12.8284 8.94188 12.2252 9.05764 11.6432C9.17339 11.0613 9.45911 10.5268 9.87867 10.1072C10.2982 9.68764 10.8328 9.40192 11.4147 9.28616C11.9967 9.1704 12.5999 9.22981 13.148 9.45688C13.6962 9.68394 14.1648 10.0685 14.4944 10.5618C14.824 11.0552 15 11.6352 15 12.2285C15 13.0242 14.6839 13.7872 14.1213 14.3498C13.5587 14.9124 12.7956 15.2285 12 15.2285Z" fill="#6B7280"/>
</svg>
