<svg width="88" height="20" viewBox="0 0 88 20" fill="none" xmlns="http://www.w3.org/2000/svg">
<g clip-path="url(#clip0_264_36)">
<path d="M7.5 8.125H12.5" stroke="#6B7280" stroke-width="1.25" stroke-linecap="round" stroke-linejoin="round"/>
<path d="M7.5 10.625H12.5" stroke="#6B7280" stroke-width="1.25" stroke-linecap="round" stroke-linejoin="round"/>
<path d="M11.6953 15.3047L10.5391 17.2344C10.4824 17.3265 10.4032 17.4025 10.3088 17.4553C10.2144 17.508 10.1081 17.5357 10 17.5357C9.89189 17.5357 9.78558 17.508 9.69121 17.4553C9.59684 17.4025 9.51756 17.3265 9.46094 17.2344L8.30469 15.3047C8.2503 15.2121 8.17269 15.1352 8.07952 15.0818C7.98635 15.0284 7.88084 15.0002 7.77344 15H3.125C2.95924 15 2.80027 14.9342 2.68306 14.8169C2.56585 14.6997 2.5 14.5408 2.5 14.375V4.375C2.5 4.20924 2.56585 4.05027 2.68306 3.93306C2.80027 3.81585 2.95924 3.75 3.125 3.75H16.875C17.0408 3.75 17.1997 3.81585 17.3169 3.93306C17.4342 4.05027 17.5 4.20924 17.5 4.375V14.375C17.5 14.5408 17.4342 14.6997 17.3169 14.8169C17.1997 14.9342 17.0408 15 16.875 15H12.2266C12.1192 15.0002 12.0137 15.0284 11.9205 15.0818C11.8273 15.1352 11.7497 15.2121 11.6953 15.3047Z" stroke="#6B7280" stroke-width="1.25" stroke-linecap="round" stroke-linejoin="round"/>
</g>
<path d="M29.0868 13.5H30.2068V9.314H35.1068V8.25H30.2068V4.778H35.6808V3.7H29.0868V13.5ZM39.3243 6.584C37.3643 6.584 36.0343 8.138 36.0343 10.154C36.0343 12.198 37.3923 13.71 39.4223 13.71C40.9903 13.71 42.3063 12.646 42.5023 11.176L41.4383 10.98C41.2843 12.03 40.4723 12.688 39.4223 12.688C38.1203 12.688 37.2103 11.75 37.1123 10.294H42.3203V9.72C42.3203 7.872 41.1303 6.584 39.3243 6.584ZM37.1683 9.342C37.4343 8.278 38.2463 7.578 39.3243 7.578C40.4443 7.578 41.2003 8.32 41.2423 9.342H37.1683ZM46.8028 6.584C44.8428 6.584 43.5128 8.138 43.5128 10.154C43.5128 12.198 44.8708 13.71 46.9008 13.71C48.4688 13.71 49.7848 12.646 49.9808 11.176L48.9168 10.98C48.7628 12.03 47.9508 12.688 46.9008 12.688C45.5988 12.688 44.6888 11.75 44.5908 10.294H49.7988V9.72C49.7988 7.872 48.6088 6.584 46.8028 6.584ZM44.6468 9.342C44.9128 8.278 45.7248 7.578 46.8028 7.578C47.9228 7.578 48.6788 8.32 48.7208 9.342H44.6468ZM54.1693 6.57C52.3213 6.57 50.9913 8.152 50.9913 10.154C50.9913 12.156 52.3213 13.71 54.1693 13.71C55.2473 13.71 56.0873 13.262 56.6333 12.478V13.5H57.7533V3.7H56.6333V7.816C56.0733 7.032 55.2333 6.57 54.1693 6.57ZM54.3653 12.632C53.0493 12.632 52.1113 11.582 52.1113 10.154C52.1113 8.712 53.0633 7.648 54.3653 7.648C55.6953 7.648 56.6333 8.712 56.6333 10.154C56.6333 11.596 55.6953 12.632 54.3653 12.632ZM59.5454 13.5H60.6654V12.478C61.2114 13.262 62.0374 13.71 63.1154 13.71C64.9634 13.71 66.2934 12.156 66.2934 10.154C66.2934 8.152 64.9634 6.57 63.1154 6.57C62.0514 6.57 61.2114 7.032 60.6654 7.816V3.7H59.5454V13.5ZM62.9194 12.632C61.6034 12.632 60.6654 11.596 60.6654 10.154C60.6654 8.726 61.6034 7.662 62.9194 7.662C64.2214 7.662 65.1734 8.726 65.1734 10.154C65.1734 11.582 64.2354 12.632 62.9194 12.632ZM69.9762 9.482C68.2822 9.748 67.4282 10.49 67.4282 11.708C67.4282 12.716 68.1842 13.696 69.7522 13.696C70.6902 13.696 71.3762 13.276 71.7682 12.618V13.5H72.8462V8.964C72.8462 7.466 71.8662 6.57 70.1162 6.57C68.6602 6.57 67.4702 7.466 67.4702 9.048V9.202L68.5482 9.286C68.5342 9.244 68.5342 9.174 68.5342 9.09C68.5342 8.138 69.1362 7.55 70.1582 7.55C71.1802 7.55 71.7682 8.096 71.7682 8.88V9.202L69.9762 9.482ZM69.9622 12.674C69.0802 12.674 68.5202 12.268 68.5202 11.61C68.5202 10.924 69.1082 10.602 70.0462 10.434L71.7682 10.14V10.63C71.7682 11.862 71.0262 12.674 69.9622 12.674ZM77.5512 6.57C75.5772 6.57 74.2472 8.124 74.2472 10.154C74.2472 12.198 75.6052 13.71 77.6492 13.71C79.2872 13.71 80.6172 12.59 80.7852 11.05L79.7212 10.812C79.6092 11.89 78.7412 12.632 77.6352 12.632C76.9492 12.632 76.4032 12.394 75.9832 11.918C75.5772 11.428 75.3672 10.798 75.3672 10.028C75.3672 8.726 76.2632 7.648 77.5512 7.648C78.5592 7.648 79.2592 8.25 79.4132 9.16L80.4632 8.838C80.1692 7.452 79.0632 6.57 77.5512 6.57ZM82.0493 13.5H83.1693V11.106L83.9113 10.378L86.3333 13.5H87.7053L84.6953 9.594L87.5373 6.78H86.0813L83.1693 9.664V3.7H82.0493V13.5Z" fill="#6B7280"/>
<defs>
<clipPath id="clip0_264_36">
<rect width="20" height="20" fill="white"/>
</clipPath>
</defs>
</svg>
