<svg width="50" height="50" viewBox="0 0 50 50" fill="none" xmlns="http://www.w3.org/2000/svg">
<g clip-path="url(#clip0_1102_994)">
<path d="M17.1618 49.9978C15.9246 49.9996 14.7165 49.623 13.6995 48.9184C12.6825 48.2138 11.9053 47.2151 11.4722 46.0562L9.88891 41.8395C9.74106 41.445 9.51042 41.0867 9.21251 40.7888C8.9146 40.4909 8.55634 40.2603 8.16183 40.1124L3.94308 38.5291C3.16436 38.2358 2.45395 37.7861 1.85559 37.2078C1.25724 36.6295 0.783622 35.9349 0.463914 35.1666C0.146199 34.3967 -0.0103249 33.5699 0.004008 32.7371C0.0183409 31.9044 0.203226 31.0834 0.547247 30.3249L2.41183 26.2228C2.76391 25.4478 2.76391 24.5562 2.41183 23.7812L0.545164 19.6791C0.201742 18.9204 0.0171884 18.0995 0.00285716 17.2669C-0.0114741 16.4342 0.14472 15.6075 0.46183 14.8374C0.782429 14.069 1.25684 13.3743 1.85588 12.7961C2.45492 12.2178 3.16592 11.7682 3.94516 11.4749L8.16183 9.89159C8.96183 9.59159 9.591 8.96242 9.891 8.16451L11.4743 3.94784C11.767 3.16849 12.2164 2.45745 12.7947 1.85868C13.3731 1.2599 14.0681 0.786106 14.8368 0.466591C15.6064 0.148928 16.4329 -0.00757112 17.2653 0.00676202C18.0977 0.0210952 18.9183 0.205956 19.6764 0.549924L23.7764 2.41242C24.5514 2.76451 25.441 2.76451 26.2181 2.41242L30.3202 0.549924C31.0784 0.206436 31.899 0.0218406 32.7313 0.00750873C33.5637 -0.0068231 34.3901 0.149412 35.1597 0.466591C35.9285 0.786403 36.6237 1.26027 37.2023 1.859C37.781 2.45772 38.2309 3.1686 38.5243 3.94784L40.1077 8.16451C40.4077 8.96242 41.0368 9.59367 41.8347 9.89159L46.0535 11.4749C46.8322 11.7683 47.5426 12.2179 48.141 12.7962C48.7393 13.3745 49.213 14.0692 49.5327 14.8374C49.8504 15.6073 50.0069 16.4341 49.9926 17.2669C49.9782 18.0996 49.7934 18.9206 49.4493 19.6791L47.5847 23.7812C47.2327 24.5562 47.2327 25.4478 47.5847 26.2228L49.4493 30.3249C49.7928 31.0836 49.9773 31.9045 49.9916 32.7371C50.006 33.5698 49.8498 34.3966 49.5327 35.1666C49.2128 35.9351 48.7389 36.63 48.1402 37.2083C47.5415 37.7866 46.8306 38.2361 46.0514 38.5291L41.8347 40.1124C41.44 40.2603 41.0814 40.4909 40.7832 40.7888C40.4849 41.0867 40.2539 41.4449 40.1056 41.8395L38.5222 46.0562C38.2285 46.8352 37.7785 47.546 37.1998 48.1446C36.6212 48.7433 35.9263 49.2173 35.1577 49.5374C34.3881 49.8551 33.5616 50.0116 32.7292 49.9972C31.8968 49.9829 31.0762 49.7981 30.3181 49.4541L26.2181 47.5895C25.834 47.4165 25.4175 47.327 24.9962 47.327C24.5749 47.327 24.1584 47.4165 23.7743 47.5895L19.6722 49.4541C18.8806 49.8166 18.0202 49.9978 17.1618 49.9978Z" fill="#F44336"/>
<path d="M35.7533 35.4185H14.2408C13.8723 35.4184 13.5157 35.2881 13.234 35.0506C12.9523 34.8131 12.7636 34.4837 12.7012 34.1206L10.4366 20.9268C10.3879 20.6434 10.4184 20.352 10.5247 20.0848C10.631 19.8176 10.809 19.5849 11.0391 19.4124C11.2691 19.2399 11.5423 19.1341 11.8286 19.1069C12.1149 19.0797 12.4031 19.132 12.6616 19.2581L18.6908 22.1935L23.6324 13.3039C24.1824 12.3102 25.8137 12.3102 26.3637 13.3039L31.3053 22.1935L37.3345 19.2581C37.5929 19.1304 37.8816 19.0768 38.1685 19.1033C38.4555 19.1299 38.7295 19.2355 38.9601 19.4084C39.1906 19.5813 39.3687 19.8148 39.4745 20.0828C39.5804 20.3509 39.6098 20.643 39.5595 20.9268L37.2949 34.1206C37.2317 34.4837 37.0425 34.8129 36.7605 35.0503C36.4785 35.2877 36.1219 35.4181 35.7533 35.4185Z" fill="#FFC107"/>
</g>
<defs>
<clipPath id="clip0_1102_994">
<rect width="50" height="50" fill="white"/>
</clipPath>
</defs>
</svg>
