<svg width="20" height="20" viewBox="0 0 20 20" fill="none" xmlns="http://www.w3.org/2000/svg">
<path d="M13.6244 10.8256L7.62444 16.8256C7.5687 16.8814 7.50252 16.9256 7.42968 16.9558C7.35684 16.9859 7.27878 17.0015 7.19994 17.0015C7.12111 17.0015 7.04304 16.9859 6.97021 16.9558C6.89737 16.9256 6.83119 16.8814 6.77544 16.8256C6.7197 16.7699 6.67548 16.7037 6.64531 16.6309C6.61514 16.558 6.59961 16.48 6.59961 16.4011C6.59961 16.3223 6.61514 16.2442 6.64531 16.1714C6.67548 16.0985 6.7197 16.0324 6.77544 15.9766L12.3517 10.4011L6.77544 4.82561C6.66286 4.71303 6.59961 4.56033 6.59961 4.40111C6.59961 4.2419 6.66286 4.0892 6.77544 3.97661C6.88803 3.86403 7.04072 3.80078 7.19994 3.80078C7.35916 3.80078 7.51186 3.86403 7.62444 3.97661L13.6244 9.97661C13.6802 10.0323 13.7245 10.0985 13.7547 10.1714C13.7849 10.2442 13.8004 10.3223 13.8004 10.4011C13.8004 10.48 13.7849 10.558 13.7547 10.6309C13.7245 10.7037 13.6802 10.7699 13.6244 10.8256Z" fill="white"/>
</svg>
