<svg width="70" height="30" viewBox="0 0 70 30" fill="none" xmlns="http://www.w3.org/2000/svg">
<rect x="0.146484" width="69" height="30" rx="15" fill="#0D0D0D"/>
<path d="M22.1465 24.1667C18.6947 24.1667 15.8965 21.3684 15.8965 17.9167C15.8965 16.1218 16.653 14.5037 17.8646 13.3638C18.9832 12.3115 21.7298 10.4163 21.3132 6.25C26.3132 9.58333 28.8132 12.9167 23.8132 17.9167C24.6465 17.9167 25.8965 17.9167 27.9798 15.858C28.2046 16.5027 28.3965 17.1954 28.3965 17.9167C28.3965 21.3684 25.5982 24.1667 22.1465 24.1667Z" fill="#FFDAB5"/>
<path d="M36.7565 11.85H37.9465V14.81H41.3265V11.85H42.5165V19H41.3265V15.83H37.9465V19H36.7565V11.85ZM47.0277 19.15C44.8677 19.15 43.5177 17.57 43.5177 15.42C43.5177 13.27 44.8677 11.7 47.0277 11.7C49.1777 11.7 50.5377 13.27 50.5377 15.42C50.5377 17.57 49.1777 19.15 47.0277 19.15ZM47.0277 18.13C48.6677 18.13 49.3477 16.87 49.3477 15.42C49.3477 13.98 48.6677 12.72 47.0277 12.72C45.3877 12.72 44.6977 13.98 44.6977 15.42C44.6977 16.87 45.3877 18.13 47.0277 18.13ZM52.9627 19V12.86H50.6727V11.85H56.4327V12.86H54.1527V19H52.9627Z" fill="#FFDAB5"/>
</svg>
