<svg width="50" height="50" viewBox="0 0 50 50" fill="none" xmlns="http://www.w3.org/2000/svg">
<path fillRule="evenodd" clipRule="evenodd" d="M9.375 8.21254V7.79535C9.375 6.0641 7.98125 4.67035 6.25 4.67035C4.51875 4.67035 3.125 6.0641 3.125 7.79535V9.35785H9.375" fill="#D3D5E7"/>
<path fillRule="evenodd" clipRule="evenodd" d="M26.975 39.0453H15.625V40.6078C15.625 42.3375 14.2313 43.7328 12.5 43.7328C10.7687 43.7328 9.375 42.3375 9.375 40.6078V7.79535C9.375 6.0641 7.98125 4.67035 6.25 4.67035H35.9375C37.6688 4.67035 39.0625 6.0641 39.0625 7.79535V39.0453H33.475H26.975Z" fill="#F0F0F0"/>
<path fillRule="evenodd" clipRule="evenodd" d="M28.8674 31.2516C28.6602 31.2622 28.4657 31.3546 28.3267 31.5086C28.1876 31.6626 28.1154 31.8656 28.126 32.0728C28.1366 32.28 28.229 32.4745 28.383 32.6135C28.537 32.7525 28.7399 32.8247 28.9471 32.8141H34.2205C34.4277 32.8141 34.6265 32.7318 34.773 32.5853C34.9195 32.4388 35.0018 32.2401 35.0018 32.0329C35.0018 31.8257 34.9195 31.6269 34.773 31.4803C34.6265 31.3338 34.4277 31.2516 34.2205 31.2516H28.9471C28.9211 31.2503 28.8934 31.2503 28.8674 31.2516Z" fill="#D3D5E7"/>
<path fillRule="evenodd" clipRule="evenodd" d="M12.5 43.7328H42.1875C43.9188 43.7328 45.3125 42.3375 45.3125 40.6078V39.0453H15.625V40.6078C15.625 42.3375 14.2313 43.7328 12.5 43.7328Z" fill="#D3D5E7"/>
<path d="M25.2109 40.9141L38.9969 26.6094L42.1781 29.911L28.3937 44.2157L25.2109 40.9141Z" fill="#FFC408"/>
<path d="M28.3901 44.2171L26.2698 46.4172C26.1335 46.5615 25.9692 46.6765 25.7869 46.7552C25.6046 46.8338 25.4081 46.8743 25.2096 46.8743C25.0111 46.8743 24.8147 46.8338 24.6324 46.7552C24.4501 46.6765 24.2857 46.5615 24.1495 46.4172L23.087 45.3171C22.8042 45.0207 22.6465 44.6268 22.6465 44.2171C22.6465 43.8075 22.8042 43.4136 23.087 43.1171L25.2088 40.9156" fill="#FF5751"/>
<path fillRule="evenodd" clipRule="evenodd" d="M17.926 9.37666C17.7192 9.38704 17.525 9.47915 17.3861 9.633C17.2472 9.78686 17.175 9.98981 17.1854 10.197C17.1958 10.4042 17.2878 10.5988 17.4414 10.7379C17.5949 10.8771 17.7974 10.9495 18.0041 10.9392H30.4573C30.6636 10.9392 30.8616 10.8568 31.0075 10.7103C31.1534 10.5638 31.2354 10.3651 31.2354 10.1579C31.2354 9.95071 31.1534 9.75186 31.0075 9.60535C30.8616 9.45883 30.6636 9.37666 30.4573 9.37666H18.0041C17.9781 9.37534 17.952 9.37534 17.926 9.37666ZM13.2385 14.0642C13.1359 14.0694 13.0354 14.0946 12.9426 14.1387C12.8498 14.1828 12.7666 14.2448 12.6978 14.3211C12.6289 14.3973 12.5758 14.4864 12.5413 14.5831C12.5069 14.6799 12.4919 14.7827 12.4971 14.8853C12.5023 14.9879 12.5277 15.0883 12.5718 15.1811C12.6159 15.2739 12.6779 15.3572 12.7541 15.426C12.8304 15.4948 12.9194 15.548 13.0162 15.5824C13.113 15.6168 13.2156 15.6319 13.3182 15.6267H35.1448C35.3516 15.6267 35.5499 15.5443 35.6961 15.3978C35.8423 15.2513 35.9244 15.0526 35.9244 14.8454C35.9244 14.6382 35.8423 14.4394 35.6961 14.2928C35.5499 14.1463 35.3516 14.0642 35.1448 14.0642H13.3182C13.2922 14.0628 13.2645 14.0628 13.2385 14.0642ZM13.2385 17.1892C13.1359 17.1944 13.0354 17.2196 12.9426 17.2637C12.8498 17.3078 12.7666 17.3698 12.6978 17.4461C12.6289 17.5223 12.5758 17.6114 12.5413 17.7081C12.5069 17.8049 12.4919 17.9077 12.4971 18.0103C12.5023 18.1129 12.5277 18.2133 12.5718 18.3061C12.6159 18.3989 12.6779 18.4822 12.7541 18.551C12.8304 18.6198 12.9194 18.673 13.0162 18.7074C13.113 18.7418 13.2156 18.7569 13.3182 18.7517H35.1448C35.3516 18.7517 35.5499 18.6693 35.6961 18.5228C35.8423 18.3763 35.9244 18.1776 35.9244 17.9704C35.9244 17.7632 35.8423 17.5644 35.6961 17.4178C35.5499 17.2713 35.3516 17.1892 35.1448 17.1892H13.3182C13.2922 17.1878 13.2645 17.1878 13.2385 17.1892ZM13.2385 20.3142C13.0313 20.3247 12.8368 20.4171 12.6978 20.5711C12.5587 20.7251 12.4865 20.9281 12.4971 21.1353C12.5077 21.3425 12.6001 21.537 12.7541 21.676C12.9081 21.815 13.111 21.8872 13.3182 21.8767H35.1448C35.3516 21.8767 35.5499 21.7943 35.6961 21.6478C35.8423 21.5013 35.9244 21.3026 35.9244 21.0954C35.9244 20.8882 35.8423 20.6894 35.6961 20.5428C35.5499 20.3963 35.3516 20.3142 35.1448 20.3142H13.3182C13.2922 20.3128 13.2645 20.3128 13.2385 20.3142ZM13.2776 23.4392C13.06 23.4496 12.8557 23.542 12.7097 23.6959C12.5636 23.8498 12.4877 24.0525 12.4987 24.2597C12.5097 24.4669 12.6066 24.6615 12.7682 24.8006C12.9298 24.9397 13.1428 25.0121 13.3604 25.0017H27.2916C27.5092 25.0017 27.7179 24.9193 27.8717 24.7728C28.0255 24.6263 28.1119 24.4276 28.1119 24.2204C28.1119 24.0132 28.0255 23.8144 27.8717 23.6678C27.7179 23.5213 27.5092 23.4392 27.2916 23.4392H13.3604C13.3328 23.4378 13.3052 23.4378 13.2776 23.4392Z" fill="#D3D5E7"/>
<path d="M38.9961 26.6094L43.768 24.9594L42.1773 29.9125L38.9961 26.6094Z" fill="#D3D5E7"/>
<path d="M17.4828 26.5594C16.9359 26.5594 16.4438 26.8344 16.025 27.25C15.6063 27.6672 15.2531 28.2265 14.9641 28.8312C14.3859 30.0406 14.0625 31.2344 14.0625 32.3125C14.0625 33.4656 14.3594 34.4406 14.9688 35.0312C15.5656 35.6094 16.4297 35.9124 17.4828 35.9124C18.5359 35.9124 19.4016 35.6094 20 35.0297C20.6078 34.4406 20.9047 33.4672 20.9047 32.311C20.9047 31.2344 20.5812 30.0406 20.0031 28.8312C19.7141 28.2265 19.3609 27.6672 18.9422 27.25C18.5234 26.8344 18.0328 26.5578 17.4844 26.5578L17.4828 26.5594Z" fill="#D3D5E7"/>
</svg>
