<svg width="185" height="36" viewBox="0 0 185 36" fill="none" xmlns="http://www.w3.org/2000/svg">
<path fillRule="evenodd" clipRule="evenodd" d="M17.3087 35.28C26.868 35.28 34.6173 27.5435 34.6173 18C34.6173 8.45654 26.868 0.720016 17.3087 0.720016C7.74934 0.720016 0 8.45654 0 18C0 27.5435 7.74934 35.28 17.3087 35.28ZM22.7084 8.76977C22.9712 7.83769 22.0652 7.28653 21.2377 7.87506L9.6869 16.0902C8.78953 16.7284 8.93068 18 9.89893 18H12.9406V17.9765H18.8686L14.0384 19.678L11.909 27.2303C11.6462 28.1624 12.5521 28.7135 13.3796 28.1249L24.9305 19.9099C25.8278 19.2716 25.6866 18 24.7184 18H20.1058L22.7084 8.76977Z" fill="#F55B23"/>
<path d="M63.8928 13.3675C66.8616 13.3675 68.3893 15.1545 68.3893 18.3252V28.5H65.334V19.1899C65.334 17.201 64.9304 15.9328 62.8551 15.9328C60.8086 15.9328 59.5404 17.3452 59.5404 19.5358V28.5H56.485V19.1899C56.485 17.201 56.0815 15.9328 53.9774 15.9328C51.9597 15.9328 50.6626 17.3452 50.6626 19.5358V28.5H47.6361V13.771H50.6626V15.6734H50.7203C51.4985 14.5204 52.8821 13.3675 55.1015 13.3675C57.1768 13.3675 58.4162 14.3187 59.0216 15.904H59.0792C60.1745 14.4916 61.6157 13.3675 63.8928 13.3675ZM83.3379 13.771L77.4578 29.4224C76.6219 31.6995 75.6707 33.5154 72.846 33.5154C71.9813 33.5154 71.2607 33.3712 70.6842 33.2271V30.9212H70.9436C72.2119 31.0941 73.163 31.0077 73.826 30.2006C74.3736 29.5377 74.7772 28.3847 74.2295 27.0012L68.8971 13.771H72.1542L76.276 25.0411H76.3337L80.1096 13.771H83.3379ZM91.2343 13.4251C91.7531 13.4251 92.1278 13.4539 92.5602 13.5116V16.3651H92.5025C89.5913 15.8751 87.2566 17.8352 87.2566 20.977V28.5H84.2301V13.771H87.2566V16.5381H87.3142C88.0925 14.6934 89.3031 13.4251 91.2343 13.4251ZM99.9634 26.4535C102.471 26.4535 103.48 24.897 103.739 24.0035H106.766C106.016 26.7994 103.826 28.9324 100.05 28.9324C95.4669 28.9324 92.671 25.7617 92.671 21.1499C92.671 16.3651 95.4669 13.3675 99.9058 13.3675C104.662 13.3675 106.996 16.6822 106.996 21.9282H95.6975C95.6975 24.407 97.2828 26.4535 99.9634 26.4535ZM99.9058 15.7598C97.4557 15.7598 95.6975 17.4028 95.6975 19.6799H103.97C103.97 17.4028 102.356 15.7598 99.9058 15.7598ZM114.865 19.5934C117.575 20.2275 120.515 20.8328 120.515 24.3494C120.515 27.1741 118.093 28.9324 114.519 28.9324C109.763 28.9324 107.717 26.7129 107.573 23.5999H110.513C110.657 25.1853 111.349 26.54 114.462 26.54C116.566 26.54 117.459 25.5023 117.459 24.58C117.459 22.7352 115.701 22.5911 113.539 22.0723C111.204 21.5246 108.034 21.0634 108.034 17.7199C108.034 15.2987 110.167 13.3675 113.856 13.3675C117.863 13.3675 119.765 15.5293 119.967 18.0946H117.027C116.825 16.9416 116.249 15.7598 113.885 15.7598C112.069 15.7598 111.089 16.4516 111.089 17.4893C111.089 18.9881 112.732 19.1034 114.865 19.5934ZM131.649 13.771H134.676V28.5H131.649V26.5976H131.592C130.814 27.7506 129.286 28.9035 126.749 28.9035C124.011 28.9035 121.849 27.3182 121.849 23.9458V13.771H124.905V23.0811C124.905 25.07 125.74 26.3382 127.816 26.3382C130.151 26.3382 131.649 24.9258 131.649 22.7352V13.771ZM153.239 13.3675C156.208 13.3675 157.735 15.1545 157.735 18.3252V28.5H154.68V19.1899C154.68 17.201 154.277 15.9328 152.201 15.9328C150.155 15.9328 148.887 17.3452 148.887 19.5358V28.5H145.831V19.1899C145.831 17.201 145.428 15.9328 143.324 15.9328C141.306 15.9328 140.009 17.3452 140.009 19.5358V28.5H136.982V13.771H140.009V15.6734H140.066C140.845 14.5204 142.228 13.3675 144.448 13.3675C146.523 13.3675 147.762 14.3187 148.368 15.904H148.425C149.521 14.4916 150.962 13.3675 153.239 13.3675ZM172.274 23.6288H163.857L162.185 28.5H158.698L166.278 7.89092H169.881L177.433 28.5H173.946L172.274 23.6288ZM164.808 20.7752H171.351L168.123 11.0327H168.065L164.808 20.7752ZM178.877 7.89092H182.307V28.5H178.877V7.89092Z" fill="white"/>
</svg>
