<svg width="50" height="50" viewBox="0 0 50 50" fill="none" xmlns="http://www.w3.org/2000/svg">
<path d="M35.7 17.5L31.1 22L27 17.9L31.6 13.3C32 12.9 32.6 12.9 33 13.3L35.8 16.1C36.1 16.5 36.1 17.1 35.7 17.5Z" fill="#CCCCCC"/>
<path d="M31.1 22L8.5 44.7C8.1 45.1 7.5 45.1 7.1 44.7L4.3 41.9C3.9 41.5 3.9 40.9 4.3 40.5L27 17.9L31.1 22Z" fill="#515151"/>
<path opacity="0.15" d="M35.6996 17.5L31.1996 22L8.49961 44.7C8.09961 45.1 7.49961 45.1 7.09961 44.7L5.09961 42.7C5.49961 43.1 6.09961 43.1 6.49961 42.7L29.1996 20L33.7996 15.4C34.1996 15 34.1996 14.4 33.7996 14L35.7996 16C36.0996 16.5 36.0996 17.1 35.6996 17.5Z" fill="black"/>
<path d="M43.7992 9.49999C41.6992 9.99999 40.3992 11.3 39.8992 13.4C39.7992 13.6 39.4992 13.6 39.4992 13.4C38.9992 11.3 37.6992 9.99999 35.5992 9.49999C35.3992 9.39999 35.3992 9.09999 35.5992 9.09999C37.6992 8.59999 38.9992 7.29999 39.4992 5.19999C39.5992 4.99999 39.8992 4.99999 39.8992 5.19999C40.3992 7.29999 41.6992 8.59999 43.7992 9.09999C44.0992 9.09999 44.0992 9.39999 43.7992 9.49999ZM25.2992 11.6C22.2992 12.3 20.2992 14.3 19.5992 17.3C19.4992 17.6 19.0992 17.6 18.9992 17.3C18.2992 14.3 16.2992 12.3 13.2992 11.6C12.9992 11.5 12.9992 11.1 13.2992 11C16.2992 10.3 18.2992 8.29999 18.9992 5.29999C19.0992 4.99999 19.4992 4.99999 19.5992 5.29999C20.2992 8.29999 22.2992 10.3 25.2992 11C25.5992 11 25.5992 11.5 25.2992 11.6Z" fill="#FFDE57"/>
<path d="M43.6996 28C40.6996 28.7 38.6996 30.7 37.9996 33.7C37.8996 34 37.4996 34 37.3996 33.7C36.6996 30.7 34.6996 28.7 31.6996 28C31.3996 27.9 31.3996 27.5 31.6996 27.4C34.6996 26.7 36.6996 24.7 37.3996 21.7C37.4996 21.4 37.8996 21.4 37.9996 21.7C38.6996 24.7 40.6996 26.7 43.6996 27.4C44.0996 27.5 44.0996 28 43.6996 28Z" fill="#FFDE57"/>
</svg>
