<svg width="50" height="50" viewBox="0 0 50 50" fill="none" xmlns="http://www.w3.org/2000/svg">
<g clip-path="url(#clip0_998_1274)">
<path d="M17.1599 49.992C15.9227 49.9938 14.7145 49.6171 13.6975 48.9125C12.6806 48.208 11.9034 47.2092 11.4703 46.0503L9.88696 41.8336C9.73911 41.4391 9.50846 41.0809 9.21056 40.783C8.91265 40.4851 8.55439 40.2544 8.15988 40.1066L3.94113 38.5232C3.16241 38.2299 2.45199 37.7802 1.85364 37.202C1.25529 36.6237 0.781669 35.929 0.461961 35.1607C0.144246 34.3908 -0.012278 33.564 0.00205488 32.7313C0.0163878 31.8985 0.201273 31.0776 0.545294 30.3191L2.40988 26.217C2.76196 25.442 2.76196 24.5503 2.40988 23.7753L0.543211 19.6732C0.199789 18.9146 0.0152353 18.0937 0.000904031 17.261C-0.0134272 16.4284 0.142767 15.6016 0.459877 14.8316C0.780476 14.0632 1.25488 13.3685 1.85392 12.7902C2.45296 12.2119 3.16397 11.7623 3.94321 11.4691L8.15988 9.88573C8.95988 9.58573 9.58904 8.95656 9.88904 8.15865L11.4724 3.94198C11.765 3.16263 12.2144 2.45159 12.7928 1.85282C13.3711 1.25404 14.0662 0.780247 14.8349 0.460731C15.6044 0.143069 16.4309 -0.0134305 17.2633 0.000902649C18.0957 0.0152358 18.9163 0.200097 19.6745 0.544065L23.7745 2.40656C24.5495 2.75865 25.439 2.75865 26.2161 2.40656L30.3182 0.544065C31.0765 0.200577 31.8971 0.0159812 32.7294 0.00164936C33.5617 -0.0126825 34.3881 0.143553 35.1578 0.460731C35.9266 0.780544 36.6217 1.25441 37.2004 1.85314C37.779 2.45186 38.2289 3.16274 38.5224 3.94198L40.1057 8.15865C40.4057 8.95656 41.0349 9.58781 41.8328 9.88573L46.0515 11.4691C46.8303 11.7624 47.5407 12.2121 48.139 12.7903C48.7374 13.3686 49.211 14.0633 49.5307 14.8316C49.8484 15.6014 50.0049 16.4283 49.9906 17.261C49.9763 18.0938 49.7914 18.9147 49.4474 19.6732L47.5828 23.7753C47.2307 24.5503 47.2307 25.442 47.5828 26.217L49.4474 30.3191C49.7908 31.0777 49.9753 31.8986 49.9897 32.7313C50.004 33.5639 49.8478 34.3907 49.5307 35.1607C49.2109 35.9293 48.737 36.6241 48.1382 37.2024C47.5395 37.7807 46.8286 38.2303 46.0495 38.5232L41.8328 40.1066C41.438 40.2544 41.0795 40.485 40.7812 40.7829C40.483 41.0808 40.2519 41.4391 40.1036 41.8336L38.5203 46.0503C38.2265 46.8294 37.7765 47.5401 37.1979 48.1388C36.6193 48.7375 35.9243 49.2114 35.1557 49.5316C34.3862 49.8492 33.5597 50.0057 32.7273 49.9914C31.8949 49.9771 31.0743 49.7922 30.3161 49.4482L26.2161 47.5836C25.832 47.4106 25.4155 47.3211 24.9943 47.3211C24.573 47.3211 24.1565 47.4106 23.7724 47.5836L19.6703 49.4482C18.8786 49.8107 18.0182 49.992 17.1599 49.992Z" fill="#FFC107"/>
<path d="M24.9993 38.3332C32.3631 38.3332 38.3327 32.3636 38.3327 24.9998C38.3327 17.636 32.3631 11.6665 24.9993 11.6665C17.6356 11.6665 11.666 17.636 11.666 24.9998C11.666 32.3636 17.6356 38.3332 24.9993 38.3332Z" fill="#DCFCE7"/>
<path d="M23.7727 31.6666C23.5055 31.1918 23.1442 30.7766 22.7109 30.4465C22.2775 30.1163 21.7813 29.8782 21.2527 29.7466L20.6793 29.5999C20.3835 29.5269 20.1216 29.3548 19.9372 29.1122C19.7529 28.8696 19.6571 28.5712 19.666 28.2666V27.6666C19.666 26.6057 19.2446 25.5883 18.4944 24.8382C17.7443 24.088 16.7269 23.6666 15.666 23.6666H12.9993C12.6457 23.6666 12.3066 23.8071 12.0565 24.0571C11.8065 24.3072 11.666 24.6463 11.666 24.9999C11.6653 27.98 12.663 30.8743 14.4997 33.221C16.3365 35.5677 18.9064 37.2314 21.7994 37.9466C21.9056 37.9595 22.0131 37.9595 22.1194 37.9466C22.3556 37.9462 22.5875 37.883 22.7913 37.7635C22.9952 37.6441 23.1636 37.4726 23.2793 37.2666C23.3468 37.1503 23.3962 37.0244 23.426 36.8933L24.106 34.7199C24.2544 34.2141 24.3013 33.684 24.2441 33.16C24.1869 32.636 24.0267 32.1285 23.7727 31.6666ZM36.9993 19.0799C35.8923 16.8459 34.1811 14.9669 32.0599 13.6565C29.9387 12.3461 27.4926 11.6567 24.9993 11.6666C22.9334 11.6625 20.8958 12.1467 19.0527 13.0799C18.779 13.2116 18.5585 13.4326 18.4276 13.7066C18.2967 13.9806 18.2632 14.291 18.3327 14.5866L19.306 18.4533C19.4763 19.1853 19.8919 19.837 20.4837 20.3002C21.0755 20.7635 21.8079 21.0104 22.5593 20.9999H22.9993C23.1762 20.9999 23.3457 21.0702 23.4708 21.1952C23.5958 21.3202 23.666 21.4898 23.666 21.6666C23.666 22.1043 23.7522 22.5378 23.9198 22.9422C24.0873 23.3466 24.3328 23.7141 24.6423 24.0236C25.2674 24.6488 26.1153 24.9999 26.9993 24.9999H28.3327C28.7704 24.9999 29.2039 24.9137 29.6083 24.7462C30.0127 24.5787 30.3802 24.3332 30.6897 24.0236C30.9992 23.7141 31.2448 23.3466 31.4123 22.9422C31.5798 22.5378 31.666 22.1043 31.666 21.6666C31.666 21.4898 31.7363 21.3202 31.8613 21.1952C31.9863 21.0702 32.1559 20.9999 32.3327 20.9999H35.746C35.9726 21.0004 36.1956 20.9431 36.3939 20.8334C36.5922 20.7238 36.7593 20.5654 36.8793 20.3733C37.008 20.1858 37.0865 19.9686 37.1075 19.7422C37.1285 19.5158 37.0913 19.2879 36.9993 19.0799ZM36.346 27.5333H36.0793L31.506 28.4533C30.9622 28.5508 30.4446 28.7599 29.9856 29.0674C29.5266 29.3749 29.1364 29.7741 28.8393 30.2399C28.5514 30.6976 28.3593 31.2088 28.2745 31.7427C28.1897 32.2767 28.214 32.8223 28.346 33.3466L29.026 36.0133C29.0734 36.2077 29.1639 36.3889 29.2909 36.5435C29.4178 36.6982 29.5779 36.8223 29.7593 36.9066C29.9359 36.9844 30.1264 37.0252 30.3193 37.0266C30.5281 37.0254 30.7336 36.9751 30.9193 36.8799C34.0321 35.345 36.4237 32.6569 37.586 29.3866C37.6661 29.2108 37.7071 29.0198 37.706 28.8266C37.6955 28.4753 37.5468 28.1423 37.2921 27.9001C37.0374 27.6579 36.6974 27.5261 36.346 27.5333Z" fill="#16A34A"/>
</g>
<defs>
<clipPath id="clip0_998_1274">
<rect width="50" height="50" fill="white"/>
</clipPath>
</defs>
</svg>
