<svg width="32" height="32" viewBox="0 0 32 32" fill="none" xmlns="http://www.w3.org/2000/svg">
<path d="M15.9993 29.3337C23.3631 29.3337 29.3327 23.3641 29.3327 16.0003C29.3327 8.63653 23.3631 2.66699 15.9993 2.66699C8.63555 2.66699 2.66602 8.63653 2.66602 16.0003C2.66602 23.3641 8.63555 29.3337 15.9993 29.3337Z" fill="#CAE8FF"/>
<path d="M16 16C18.2091 16 20 14.2091 20 12C20 9.79086 18.2091 8 16 8C13.7909 8 12 9.79086 12 12C12 14.2091 13.7909 16 16 16Z" fill="#14A7FF"/>
<path d="M15.9997 18.667C14.0165 18.6791 12.1069 19.419 10.6333 20.7463C9.15977 22.0737 8.22495 23.8959 8.00637 25.867C7.98277 26.1076 8.02502 26.35 8.12859 26.5685C8.23216 26.7869 8.39316 26.973 8.59437 27.107C10.7914 28.5584 13.3665 29.3322 15.9997 29.3322C18.6329 29.3322 21.208 28.5584 23.405 27.107C23.6075 26.9738 23.7698 26.788 23.8746 26.5696C23.9793 26.3511 24.0226 26.1082 23.9997 25.867C23.781 23.8947 22.8452 22.0716 21.3703 20.7441C19.8953 19.4167 17.984 18.6775 15.9997 18.667Z" fill="#14A7FF"/>
</svg>
