<svg width="16" height="16" viewBox="0 0 16 16" fill="none" xmlns="http://www.w3.org/2000/svg">
<circle cx="8" cy="8" r="2" stroke="#F9FAFB"/>
<path d="M9.18114 1.43499C8.93611 1.3335 8.62548 1.3335 8.00422 1.3335C7.38297 1.3335 7.07234 1.3335 6.82731 1.43499C6.50061 1.57032 6.24104 1.82988 6.10572 2.15658C6.04394 2.30572 6.01977 2.47916 6.01031 2.73216C5.9964 3.10395 5.80574 3.44809 5.48353 3.63412C5.16132 3.82014 4.76796 3.81319 4.43903 3.63934C4.2152 3.52103 4.0529 3.45524 3.89286 3.43417C3.54226 3.38802 3.18769 3.48302 2.90714 3.6983C2.69673 3.85975 2.54141 4.12876 2.23079 4.66678C1.92016 5.20481 1.76485 5.47382 1.73023 5.73677C1.68407 6.08736 1.77908 6.44194 1.99435 6.72248C2.09261 6.85053 2.2307 6.95818 2.44502 7.09285C2.7601 7.29082 2.96283 7.62807 2.9628 8.00018C2.96278 8.37225 2.76006 8.70945 2.44502 8.90739C2.23066 9.04208 2.09255 9.14973 1.99428 9.2778C1.77901 9.55834 1.68401 9.91292 1.73016 10.2635C1.76478 10.5265 1.92009 10.7955 2.23072 11.3335C2.54135 11.8715 2.69666 12.1405 2.90707 12.302C3.18762 12.5173 3.54219 12.6123 3.89279 12.5661C4.05283 12.545 4.21511 12.4793 4.43892 12.361C4.76788 12.1871 5.16127 12.1802 5.4835 12.3662C5.80572 12.5522 5.9964 12.8964 6.01031 13.2682C6.01977 13.5212 6.04395 13.6946 6.10572 13.8437C6.24104 14.1704 6.50061 14.43 6.82731 14.5653C7.07234 14.6668 7.38297 14.6668 8.00422 14.6668C8.62548 14.6668 8.93611 14.6668 9.18114 14.5653C9.50784 14.43 9.76741 14.1704 9.90273 13.8437C9.96451 13.6946 9.98868 13.5212 9.99814 13.2681C10.012 12.8964 10.2027 12.5522 10.5249 12.3662C10.8471 12.1801 11.2405 12.1871 11.5695 12.3609C11.7933 12.4792 11.9556 12.545 12.1156 12.5661C12.4662 12.6122 12.8208 12.5172 13.1013 12.3019C13.3117 12.1405 13.467 11.8715 13.7777 11.3334C14.0883 10.7954 14.2436 10.5264 14.2782 10.2635C14.3244 9.91287 14.2294 9.5583 14.0141 9.27775C13.9158 9.14969 13.7777 9.04204 13.5634 8.90736C13.2483 8.70941 13.0456 8.37218 13.0456 8.0001C13.0457 7.62806 13.2484 7.29088 13.5634 7.09296C13.7778 6.95826 13.9159 6.8506 14.0142 6.72253C14.2294 6.44198 14.3244 6.08741 14.2783 5.73681C14.2437 5.47386 14.0884 5.20485 13.7777 4.66683C13.4671 4.12881 13.3118 3.85979 13.1014 3.69834C12.8208 3.48307 12.4663 3.38806 12.1157 3.43422C11.9556 3.45529 11.7933 3.52107 11.5695 3.63936C11.2406 3.81322 10.8472 3.82017 10.5249 3.63414C10.2027 3.4481 10.012 3.10394 9.99814 2.73212C9.98868 2.47915 9.9645 2.30572 9.90273 2.15658C9.76741 1.82988 9.50784 1.57032 9.18114 1.43499Z" stroke="#F9FAFB"/>
</svg>
