<svg width="40" height="40" viewBox="0 0 40 40" fill="none" xmlns="http://www.w3.org/2000/svg">
<circle cx="20" cy="20" r="20" fill="#FEF2F2"/>
<g clip-path="url(#clip0_1084_2063)">
<path fillRule="evenodd" clipRule="evenodd" d="M23.2715 11.0935L27.1241 14.9508H23.9603C23.5814 14.9508 23.2715 14.6409 23.2715 14.262V11.0935H23.2715Z" fill="#EF9A9A"/>
<path fillRule="evenodd" clipRule="evenodd" d="M13.33 11.0935H23.2722V14.2429C23.2722 14.6323 23.5907 14.9508 23.9801 14.9508H27.1248V24.4998C27.1248 24.7576 26.9138 24.9685 26.656 24.9685H13.3301C13.0722 24.9685 12.8613 24.7576 12.8613 24.4998V11.5623C12.8613 11.3045 13.0723 11.0935 13.3301 11.0935L13.33 11.0935Z" fill="#FFCDD2"/>
<path d="M15.875 16.9453H24.5V17.6953H15.875V16.9453ZM15.875 19.5703H24.5V20.3203H15.875V19.5703Z" fill="#D32F2F"/>
<path fillRule="evenodd" clipRule="evenodd" d="M11.9539 22.3694H28.0462C28.3084 22.3694 28.547 22.4776 28.7201 22.6519C28.8928 22.8257 29 23.0648 29 23.3271V27.9484C29 28.2107 28.8928 28.4498 28.7201 28.6236C28.547 28.798 28.3084 28.9062 28.0462 28.9062H11.9539C11.6917 28.9062 11.4531 28.798 11.2799 28.6236C11.1072 28.4498 11 28.2107 11 27.9484V23.3271C11 23.0648 11.1072 22.8257 11.2799 22.6519C11.453 22.4776 11.6917 22.3694 11.9539 22.3694Z" fill="#D32F2F"/>
<path d="M14.7031 27.7349V23.5405H16.0615C16.5762 23.5405 16.9121 23.562 17.0684 23.604C17.3086 23.6665 17.5107 23.8032 17.6729 24.0142C17.835 24.2251 17.916 24.4976 17.916 24.8306C17.916 25.0884 17.8691 25.3052 17.7754 25.48C17.6816 25.6558 17.5635 25.7935 17.4189 25.8941C17.2754 25.9937 17.1289 26.0601 16.9805 26.0923C16.7783 26.1323 16.4853 26.1528 16.1016 26.1528H15.5498V27.7349H14.7031ZM15.5498 24.2505V25.4399H16.0127C16.3467 25.4399 16.5703 25.4185 16.6826 25.3745C16.7949 25.3306 16.8828 25.2622 16.9473 25.1685C17.0107 25.0747 17.043 24.9663 17.043 24.8423C17.043 24.6899 16.998 24.564 16.9082 24.4644C16.8193 24.3657 16.7051 24.3032 16.5684 24.2788C16.4668 24.2593 16.2637 24.2505 15.959 24.2505H15.5498L15.5498 24.2505ZM18.6084 23.5405H20.1562C20.5049 23.5405 20.7705 23.5669 20.9541 23.6206C21.2002 23.6929 21.4111 23.8218 21.5859 24.0073C21.7617 24.1919 21.8955 24.4185 21.9873 24.686C22.0781 24.9546 22.124 25.2847 22.124 25.6782C22.124 26.023 22.081 26.3208 21.9951 26.5708C21.8906 26.8755 21.7412 27.1226 21.5459 27.311C21.3994 27.4546 21.2012 27.5659 20.9512 27.646C20.7646 27.7056 20.5146 27.7349 20.2012 27.7349H18.6084L18.6084 23.5405ZM19.4551 24.2505V27.0278H20.0869C20.3232 27.0278 20.4941 27.0151 20.5996 26.9878C20.7363 26.9536 20.8506 26.896 20.9414 26.814C21.0322 26.7319 21.1055 26.5962 21.1631 26.4087C21.2197 26.2212 21.249 25.9644 21.249 25.6401C21.249 25.3159 21.2197 25.0679 21.1631 24.894C21.1055 24.7202 21.0254 24.5845 20.9228 24.4878C20.8193 24.3901 20.6885 24.3247 20.5303 24.2905C20.4121 24.2632 20.1806 24.2505 19.835 24.2505H19.4551ZM22.8477 27.7349V23.5405H25.7236V24.2505H23.6953V25.2427H25.4463V25.9526H23.6953V27.7349H22.8477Z" fill="white"/>
</g>
<defs>
<clipPath id="clip0_1084_2063">
<rect width="24" height="24" fill="white" transform="translate(8 8)"/>
</clipPath>
</defs>
</svg>
