<svg width="53" height="52" viewBox="0 0 53 52" fill="none" xmlns="http://www.w3.org/2000/svg">
<circle cx="26.5" cy="26" r="26" fill="#FEF2F2"/>
<g clip-path="url(#clip0_1084_1990)">
<path fillRule="evenodd" clipRule="evenodd" d="M30.7539 14.4216L35.7623 19.4361H31.6493C31.1568 19.4361 30.7539 19.0332 30.7539 18.5407V14.4216H30.7539Z" fill="#EF9A9A"/>
<path fillRule="evenodd" clipRule="evenodd" d="M17.83 14.4216H30.7548V18.5158C30.7548 19.022 31.1689 19.4361 31.6751 19.4361H35.7632V31.8498C35.7632 32.1849 35.489 32.4591 35.1538 32.4591H17.83C17.4949 32.4591 17.2207 32.1849 17.2207 31.8498V15.031C17.2207 14.6959 17.4949 14.4216 17.8301 14.4216L17.83 14.4216Z" fill="#FFCDD2"/>
<path d="M21.1387 22.0288H32.3512V23.0038H21.1387V22.0288ZM21.1387 25.4412H32.3512V26.4163H21.1387V25.4412Z" fill="#D32F2F"/>
<path fillRule="evenodd" clipRule="evenodd" d="M16.0408 29.0801H36.9608C37.3017 29.0801 37.6119 29.2208 37.8369 29.4473C38.0615 29.6734 38.2008 29.9842 38.2008 30.3251V36.3328C38.2008 36.6738 38.0614 36.9846 37.8369 37.2106C37.6118 37.4372 37.3017 37.5779 36.9608 37.5779H16.0408C15.7 37.5779 15.3898 37.4372 15.1647 37.2106C14.9402 36.9846 14.8008 36.6739 14.8008 36.3328V30.3251C14.8008 29.9842 14.9402 29.6734 15.1647 29.4473C15.3897 29.2208 15.6999 29.0801 16.0408 29.0801Z" fill="#D32F2F"/>
<path d="M19.6152 36.0552V30.6025H21.3811C22.0502 30.6025 22.4869 30.6305 22.69 30.6851C23.0023 30.7663 23.2651 30.944 23.4759 31.2183C23.6866 31.4925 23.792 31.8467 23.792 32.2796C23.792 32.6148 23.7311 32.8966 23.6092 33.1238C23.4873 33.3523 23.3337 33.5313 23.1458 33.6621C22.9592 33.7916 22.7687 33.8779 22.5758 33.9198C22.313 33.9719 21.9321 33.9985 21.4332 33.9985H20.7159V36.0552H19.6152ZM20.7159 31.5255V33.0718H21.3177C21.7519 33.0718 22.0426 33.0438 22.1886 32.9867C22.3346 32.9296 22.4488 32.8407 22.5326 32.7189C22.6151 32.597 22.657 32.4561 22.657 32.2948C22.657 32.0968 22.5986 31.933 22.4818 31.8035C22.3663 31.6753 22.2178 31.5941 22.04 31.5623C21.908 31.5369 21.6439 31.5255 21.2479 31.5255H20.7159L20.7159 31.5255ZM24.6921 30.6025H26.7043C27.1575 30.6025 27.5028 30.6368 27.7415 30.7067C28.0614 30.8006 28.3356 30.9682 28.5629 31.2094C28.7914 31.4493 28.9653 31.7439 29.0847 32.0917C29.2027 32.4408 29.2624 32.8699 29.2624 33.3815C29.2624 33.8297 29.2065 34.2169 29.0948 34.5419C28.959 34.938 28.7647 35.2592 28.5108 35.5042C28.3204 35.6908 28.0627 35.8356 27.7377 35.9396C27.4952 36.0171 27.1702 36.0552 26.7627 36.0552H24.6921L24.6921 30.6025ZM25.7928 31.5255V35.136H26.6142C26.9214 35.136 27.1435 35.1195 27.2807 35.084C27.4584 35.0396 27.6069 34.9647 27.725 34.858C27.843 34.7514 27.9383 34.5749 28.0132 34.3312C28.0868 34.0874 28.1249 33.7535 28.1249 33.332C28.1249 32.9105 28.0868 32.5881 28.0132 32.3621C27.9383 32.1361 27.8342 31.9597 27.7009 31.834C27.5663 31.707 27.3962 31.622 27.1905 31.5776C27.0369 31.542 26.736 31.5255 26.2866 31.5255H25.7928ZM30.2031 36.0552V30.6025H33.9419V31.5255H31.3051V32.8153H33.5814V33.7383H31.3051V36.0552H30.2031Z" fill="white"/>
</g>
<defs>
<clipPath id="clip0_1084_1990">
<rect width="31.2" height="31.2" fill="white" transform="translate(10.9004 10.4001)"/>
</clipPath>
</defs>
</svg>
